<?xml version="1.0" encoding="utf-8"?>
<!-- Generator: Adobe Illustrator 26.0.1, SVG Export Plug-In . SVG Version: 6.00 Build 0)  -->
<svg version="1.1" id="레이어_1" xmlns="http://www.w3.org/2000/svg" xmlns:xlink="http://www.w3.org/1999/xlink" x="0px"
	 y="0px" viewBox="0 0 820.08 820.08" style="enable-background:new 0 0 820.08 820.08;" xml:space="preserve">
<style type="text/css">
	.st0{fill:#27234C;}
	.st1{fill:url(#SVGID_1_);}
	.st2{fill:url(#SVGID_00000128456636637689475040000001971751439343681415_);}
	.st3{fill:url(#SVGID_00000138553207624277357610000013875333807236854421_);}
</style>
<g>
	<g>
		<path class="st0" d="M200.08,639.59c4.03-5.93,6.08-12.72,6.08-20.17c0-7.01-1.76-13.38-5.24-18.93
			c-3.47-5.53-8.19-9.94-14.05-13.11c-5.85-3.17-12.42-4.77-19.54-4.77h-57v113.75h25.6V656.4h22.26l23.04,39.95l30.65,0.18
			l-26.17-44.36C191.57,649.23,196.4,645,200.08,639.59z M176.23,630.43c-2.41,2.64-5.67,3.98-9.7,3.98h-30.6v-28.71h27.37
			c5.05,0,9.14,1.35,12.16,4.02c2.96,2.62,4.46,6.15,4.46,10.49C179.92,624.3,178.68,627.74,176.23,630.43z"/>
		<rect x="250.85" y="582.6" class="st0" width="26.48" height="113.75"/>
		<polygon class="st0" points="410.31,600.64 409.44,599.98 409.44,599.98 410.41,600.51 410.63,600.22 410.63,582.6 323.79,582.6 
			323.79,606.96 374.38,606.96 319.83,678.28 319.6,678.58 319.6,696.36 412.41,696.36 412.41,672.63 355.68,672.63 		"/>
		<path class="st0" d="M547.46,597.29c-5.24-5.29-11.52-9.45-18.66-12.36c-7.14-2.91-14.99-4.38-23.33-4.38
			c-8.45,0-16.35,1.47-23.49,4.38c-7.15,2.91-13.43,7.04-18.66,12.27c-5.23,5.24-9.36,11.5-12.28,18.61
			c-2.91,7.11-4.39,14.97-4.39,23.35c0,8.49,1.48,16.4,4.39,23.51c2.92,7.12,7.05,13.38,12.28,18.61
			c5.22,5.23,11.5,9.36,18.66,12.28c7.14,2.91,15.05,4.38,23.49,4.38c8.33,0,16.18-1.47,23.33-4.38
			c7.15-2.91,13.43-7.07,18.66-12.36c5.23-5.28,9.35-11.57,12.27-18.68c2.91-7.11,4.39-14.97,4.39-23.35
			c0-8.28-1.48-16.08-4.39-23.19C556.82,608.86,552.69,602.58,547.46,597.29z M533.15,656.74c-2.7,5.09-6.49,9.13-11.26,12.02
			c-4.77,2.89-10.29,4.35-16.42,4.35c-6.23,0-11.81-1.46-16.58-4.35c-4.78-2.89-8.57-6.91-11.27-11.95
			c-2.71-5.05-4.08-10.99-4.08-17.65c0-6.55,1.37-12.46,4.09-17.57c2.69-5.09,6.48-9.13,11.26-12.02
			c4.77-2.89,10.35-4.35,16.58-4.35c6.11,0,11.63,1.49,16.41,4.42c4.78,2.94,8.57,6.99,11.28,12.03c2.71,5.07,4.08,10.95,4.08,17.49
			C537.24,645.7,535.86,651.62,533.15,656.74z"/>
		<path class="st0" d="M683.15,615.29c-0.11,9.48,0.03,17.94,0.41,25.13c0.14,2.67,0.21,5.03,0.28,7.35
			c0.07,2.28,0.14,4.49,0.27,6.87l-54.17-71.61l-0.33-0.43h-23.18v113.75h25.92v-42.35c0-2.78-0.06-5.59-0.16-8.36
			c-0.05-1.22-0.05-2.45-0.05-3.88c0-1.72,0-3.7-0.09-6.25l-0.08-2.81c-0.05-1.95-0.1-4.1-0.25-7.09l53.52,70.29l0.33,0.43h23.5
			V582.6h-25.92V615.29z"/>
	</g>
	<path class="st0" d="M739,299.46c0-21.55-94.84-44.22-226.2-52.33c78.28-7.06,132.23-21.58,132.23-36.4
		c0-16.85-77.18-34.79-180.88-39.61c38.86-4.31,65.5-13.05,65.5-22.75c0-10.96-53.71-25.63-119.96-25.63s-119.96,13.53-119.96,25.63
		c0,11.23,24.64,19.01,61.1,22.84c-101.49,4.73-176.48,21.25-176.48,39.52c0,14.7,53.2,29.13,130.58,36.25
		c-130.52,7.6-224.56,28.89-224.56,52.48c0,24.19,93.04,44.96,222.46,52.48c-76.25,7.18-128.49,21.46-128.49,36.04
		c0,18.26,74.99,34.79,176.48,39.52c-36.46,3.83-61.1,11.62-61.1,22.84c0,12.09,53.71,25.63,119.96,25.63s119.96-14.67,119.96-25.63
		c0-9.7-26.64-18.44-65.5-22.78c103.7-4.82,180.88-22.72,180.88-39.58c0-14.7-53.02-29.07-130.19-36.22
		C645.15,343.74,739,321.65,739,299.46z M321.9,234.71l0.33-0.27c0.48-0.33,0.9-0.66,1.47-1.02c0.54-0.39,1.11-0.72,1.68-1.11
		l68.47-39.52c4.91-2.78,10.36-4.22,15.96-4.22c5.57,0,11.08,1.44,15.87,4.22c0,0,67.45,38.89,68.47,39.46
		c5.63,3.26,10.12,8.86,11.56,15.39c0.39,1.77,1.47,5.66-0.09,7.24c-0.27,0.27-0.6,0.48-1.05,0.57c-1.92,0.54-4.34,0.18-6.29,0.12
		c-2.28-0.06-4.49-0.18-6.74-0.3c-4.4-0.3-8.86-0.72-13.26-1.2c-5.87-0.63-11.71-1.23-17.51-1.89c-8.83-0.9-17.6-1.86-26.4-2.78
		c-10.3-1.11-20.54-2.19-30.77-3.26c-10.24-1.11-20.45-2.19-30.72-3.26c-8.74-0.96-17.45-1.86-26.16-2.78
		c-5.75-0.63-11.47-1.2-17.21-1.86c-1.44-0.15-2.87-0.3-4.34-0.45c-0.33-0.06-0.66-0.12-0.99-0.12c-1.05-0.18-2.07-0.3-2.51-1.05
		C321.45,236.3,321.3,235.61,321.9,234.71z M505.62,354.97l-0.06,0.09c-0.3,0.54-0.63,1.05-0.96,1.53l-0.6,0.87
		c-2.22,3.14-4.97,5.81-8.23,7.96l-70.11,40.53c-4.88,2.78-10.36,4.19-15.87,4.19c-5.51,0-10.96-1.41-15.93-4.19l-61.07-35.3
		c-0.78-0.54-1.44-0.99-1.95-1.44l-0.15-0.06c-0.81-0.9-1.11-1.74-0.87-2.6c0.78-2.37,5.96-3.41,6.2-3.44
		c1.41-0.24,2.75-0.45,4.1-0.69l0.9-0.12c2.25-0.3,4.43-0.66,6.68-0.99c2.22-0.33,4.43-0.63,6.71-0.96
		c8.8-1.23,17.27-2.34,25.96-3.32c8.17-1.02,16.61-1.89,25.12-2.66c8.95-0.84,16.91-1.47,24.22-1.95
		c7.96-0.48,15.84-0.93,23.47-1.17c7.63-0.36,15.24-0.48,22.69-0.51c0.72,0,1.5-0.03,2.22-0.03h2.22c5.6,0,11.53,0.06,17.54,0.18
		c0.72,0.06,1.47,0.09,2.19,0.12l1.23,0.06c2.25,0.21,3.65,0.87,4.25,1.83C505.89,353.5,505.89,354.16,505.62,354.97z M509.99,316.2
		c0,8.59,0.09,8.77-17.6,10.99l-11.53,0.99c-1.5,0.15-3.11,0.27-4.73,0.51l-3.65,0.3c-29.31,2.96-58.68,5.48-88.07,7.3
		c-12.99,0.81-25.96,1.47-39.01,1.98c-6.08,0.21-12.12,0.45-18.2,0.6c-2.93,0.03-5.84,0.09-8.74,0.15c-2.34,0.06-5.9,0.81-7.75-0.93
		c-1.77-1.65-1.2-4.91-1.2-7.15v-58.29c0-8.08,2.54-9.85,19.34-10.9c2.78-0.03,5.75-0.09,9.64-0.09c49.16,0,101.49,7.3,164.65,23.08
		c0.09,0,0.18,0,0.24,0.03c0.03,0,0.09,0.03,0.12,0.03c0.51,0.15,1.05,0.27,1.59,0.39l0.12,0.03c2.25,0.87,4.79,0.42,4.79,7.9V316.2
		z"/>
	<g>
		<linearGradient id="SVGID_1_" gradientUnits="userSpaceOnUse" x1="535.9903" y1="187.1401" x2="376.5475" y2="421.2158">
			<stop  offset="0.0403" style="stop-color:#7AC38E"/>
			<stop  offset="0.1717" style="stop-color:#78C393"/>
			<stop  offset="0.3486" style="stop-color:#71C1A0"/>
			<stop  offset="0.5512" style="stop-color:#65BEB4"/>
			<stop  offset="0.7731" style="stop-color:#52B9CE"/>
			<stop  offset="1" style="stop-color:#2EB2E8"/>
		</linearGradient>
		<path class="st1" d="M505.61,354.96l-0.06,0.09c-0.3,0.55-0.64,1.06-0.94,1.55l-0.61,0.85c-2.22,3.16-4.98,5.8-8.24,7.96
			l-70.11,40.54c-4.89,2.8-10.36,4.19-15.86,4.19c-5.5,0-10.97-1.4-15.92-4.19l-61.08-35.28c-0.76-0.55-1.43-1-1.94-1.46l-0.15-0.06
			c-0.79-0.88-1.09-1.73-0.85-2.58c0.76-2.37,5.96-3.43,6.2-3.46c1.4-0.24,2.73-0.43,4.1-0.67l0.88-0.12c2.25-0.3,4.44-0.67,6.69-1
			c2.22-0.33,4.44-0.61,6.69-0.94c8.81-1.25,17.29-2.34,25.98-3.34c8.14-1,16.59-1.88,25.1-2.64c8.97-0.85,16.93-1.49,24.22-1.94
			c7.96-0.49,15.83-0.94,23.46-1.19c7.63-0.36,15.26-0.49,22.7-0.52c0.73,0,1.49-0.03,2.22-0.03h2.22c5.59,0,11.52,0.06,17.54,0.18
			c0.73,0.06,1.46,0.09,2.19,0.12l1.22,0.06c2.25,0.21,3.65,0.88,4.25,1.82C505.89,353.5,505.89,354.17,505.61,354.96z"/>
		
			<linearGradient id="SVGID_00000170969193909638162830000009931361095221204612_" gradientUnits="userSpaceOnUse" x1="499.9099" y1="162.5638" x2="340.4664" y2="396.6403">
			<stop  offset="0.0403" style="stop-color:#7AC38E"/>
			<stop  offset="0.1717" style="stop-color:#78C393"/>
			<stop  offset="0.3486" style="stop-color:#71C1A0"/>
			<stop  offset="0.5512" style="stop-color:#65BEB4"/>
			<stop  offset="0.7731" style="stop-color:#52B9CE"/>
			<stop  offset="1" style="stop-color:#2EB2E8"/>
		</linearGradient>
		<path style="fill:url(#SVGID_00000170969193909638162830000009931361095221204612_);" d="M509.99,293.11v23.1
			c0,8.57,0.09,8.75-17.6,10.97l-11.55,1c-1.49,0.15-3.1,0.27-4.71,0.49l-3.65,0.3c-29.33,2.98-58.68,5.5-88.07,7.32
			c-13.01,0.79-25.98,1.46-39.02,1.98c-6.08,0.21-12.13,0.43-18.2,0.58c-2.92,0.03-5.83,0.09-8.75,0.15
			c-2.31,0.06-5.9,0.82-7.75-0.91c-1.76-1.64-1.19-4.92-1.19-7.17v-58.29c0-8.08,2.55-9.85,19.33-10.88
			c2.8-0.03,5.74-0.09,9.63-0.09c49.17,0,101.5,7.29,164.66,23.07c0.09,0,0.18,0,0.24,0.03c0.03,0,0.09,0.03,0.12,0.03
			c0.52,0.15,1.06,0.27,1.58,0.4l0.12,0.03C507.44,286.09,509.99,285.64,509.99,293.11z"/>
		
			<linearGradient id="SVGID_00000116920697093636720150000012300806585110032020_" gradientUnits="userSpaceOnUse" x1="479.3241" y1="148.5419" x2="319.8809" y2="382.6181">
			<stop  offset="0.0403" style="stop-color:#7AC38E"/>
			<stop  offset="0.1717" style="stop-color:#78C393"/>
			<stop  offset="0.3486" style="stop-color:#71C1A0"/>
			<stop  offset="0.5512" style="stop-color:#65BEB4"/>
			<stop  offset="0.7731" style="stop-color:#52B9CE"/>
			<stop  offset="1" style="stop-color:#2EB2E8"/>
		</linearGradient>
		<path style="fill:url(#SVGID_00000116920697093636720150000012300806585110032020_);" d="M505.58,254.88
			c-0.27,0.27-0.61,0.49-1.03,0.58c-1.91,0.55-4.35,0.18-6.29,0.12c-2.28-0.06-4.5-0.18-6.75-0.3c-4.41-0.3-8.84-0.73-13.25-1.19
			c-5.87-0.64-11.7-1.25-17.54-1.88c-8.81-0.91-17.6-1.85-26.38-2.8c-10.3-1.09-20.54-2.19-30.79-3.25
			c-10.24-1.12-20.45-2.19-30.72-3.28c-8.72-0.94-17.44-1.85-26.17-2.77c-5.74-0.64-11.46-1.22-17.2-1.85
			c-1.43-0.15-2.89-0.3-4.35-0.46c-0.33-0.06-0.67-0.12-0.97-0.12c-1.06-0.18-2.07-0.3-2.52-1.06c-0.18-0.3-0.33-1,0.27-1.91
			l0.33-0.27c0.46-0.3,0.88-0.64,1.46-1c0.55-0.39,1.09-0.73,1.67-1.09l68.47-39.54c4.89-2.77,10.36-4.22,15.95-4.22
			c5.56,0,11.06,1.46,15.86,4.22c0,0,67.44,38.9,68.47,39.48c5.62,3.25,10.12,8.84,11.55,15.38
			C506.07,249.41,507.13,253.3,505.58,254.88z"/>
	</g>
</g>
</svg>
