<?xml version="1.0" encoding="utf-8"?>
<!-- Generator: Adobe Illustrator 25.2.3, SVG Export Plug-In . SVG Version: 6.00 Build 0)  -->
<svg version="1.1" id="레이어_1" xmlns="http://www.w3.org/2000/svg" xmlns:xlink="http://www.w3.org/1999/xlink" x="0px"
	 y="0px" viewBox="0 0 251.6 49.1" style="enable-background:new 0 0 251.6 49.1;" xml:space="preserve">
<style type="text/css">
	.st0{fill:#FFFFFF;}
	.st1{fill:url(#SVGID_1_);}
</style>
<g>
	<g>
		<path class="st0" d="M127.2,24.7c1-1.5,1.6-3.3,1.6-5.2c0-1.8-0.5-3.5-1.4-4.9s-2.1-2.6-3.6-3.4c-1.5-0.8-3.2-1.2-5.1-1.2h-14.8
			v29.5h6.6V29h5.8l6,10.4h8l-6.8-11.5C125,27.2,126.2,26.1,127.2,24.7z M121,22.3c-0.6,0.7-1.5,1-2.5,1h-7.9v-7.5h7.1
			c1.3,0,2.4,0.4,3.2,1c0.8,0.7,1.2,1.6,1.2,2.7C122,20.7,121.6,21.6,121,22.3z"/>
		<rect x="137.9" y="9.9" class="st0" width="6.9" height="29.5"/>
		<polygon class="st0" points="177.5,14.5 177.3,14.4 177.3,14.4 177.5,14.5 177.6,14.4 177.6,9.9 155,9.9 155,16.2 168.1,16.2 
			154,34.7 153.9,34.8 153.9,39.4 178,39.4 178,33.2 163.3,33.2 		"/>
		<path class="st0" d="M211.7,13.7c-1.4-1.4-3-2.5-4.8-3.2c-1.9-0.8-3.9-1.1-6.1-1.1c-2.2,0-4.2,0.4-6.1,1.1
			c-1.9,0.8-3.5,1.8-4.8,3.2c-1.4,1.4-2.4,3-3.2,4.8s-1.1,3.9-1.1,6.1s0.4,4.3,1.1,6.1c0.8,1.8,1.8,3.5,3.2,4.8
			c1.4,1.4,3,2.4,4.8,3.2c1.9,0.8,3.9,1.1,6.1,1.1c2.2,0,4.2-0.4,6.1-1.1c1.9-0.8,3.5-1.8,4.8-3.2c1.4-1.4,2.4-3,3.2-4.9
			c0.8-1.8,1.1-3.9,1.1-6.1c0-2.1-0.4-4.2-1.1-6C214.2,16.7,213.1,15,211.7,13.7z M208,29.1c-0.7,1.3-1.7,2.4-2.9,3.1
			s-2.7,1.1-4.3,1.1s-3.1-0.4-4.3-1.1c-1.2-0.8-2.2-1.8-2.9-3.1c-0.7-1.3-1.1-2.9-1.1-4.6s0.4-3.2,1.1-4.6c0.7-1.3,1.7-2.4,2.9-3.1
			s2.7-1.1,4.3-1.1s3,0.4,4.3,1.1c1.2,0.8,2.2,1.8,2.9,3.1c0.7,1.3,1.1,2.8,1.1,4.5C209.1,26.2,208.7,27.8,208,29.1z"/>
		<path class="st0" d="M244.9,18.3c0,2.5,0,4.7,0.1,6.5c0,0.7,0.1,1.3,0.1,1.9s0,1.2,0.1,1.8L231.1,10L231,9.9h-6v29.5h6.7v-11
			c0-0.7,0-1.5,0-2.2c0-0.3,0-0.6,0-1s0-1,0-1.6v-0.7c0-0.5,0-1.1-0.1-1.8l13.9,18.3l0.1,0.1h6.1V9.9H245v8.4H244.9z"/>
	</g>
	<g>
		<g>
			<linearGradient id="SVGID_1_" gradientUnits="userSpaceOnUse" x1="75.5589" y1="3.3801" x2="23.5589" y2="40.3801">
				<stop  offset="4.034390e-02" style="stop-color:#6AF2A6"/>
				<stop  offset="0.197" style="stop-color:#64EFAB"/>
				<stop  offset="0.4077" style="stop-color:#53E8B9"/>
				<stop  offset="0.6492" style="stop-color:#37DCD1"/>
				<stop  offset="0.9118" style="stop-color:#10CBF1"/>
				<stop  offset="1" style="stop-color:#01C5FD"/>
			</linearGradient>
			<path class="st1" d="M91.6,24.6c0-3-13.2-6.2-31.5-7.3c10.9-1,18.4-3,18.4-5.1c0-2.3-10.7-4.8-25.2-5.5c5.4-0.6,9.1-1.8,9.1-3.2
				C62.5,2,55,0,45.8,0S29.1,1.9,29.1,3.6c0,1.6,3.4,2.6,8.5,3.2c-14.1,0.7-24.5,3-24.5,5.5c0,2,7.4,4.1,18.2,5
				c-18.2,1-31.3,4-31.3,7.3c0,3.4,12.9,6.3,30.9,7.3c-10.6,1-17.9,3-17.9,5c0,2.5,10.4,4.8,24.5,5.5C32.4,42.9,29,44,29,45.6
				c0,1.7,7.5,3.6,16.7,3.6s16.7-2,16.7-3.6c0-1.3-3.7-2.6-9.1-3.2c14.4-0.7,25.2-3.2,25.2-5.5c0-2-7.4-4-18.1-5
				C78.6,30.7,91.6,27.7,91.6,24.6z M33.6,15.6L33.6,15.6c0.1-0.1,0.2-0.1,0.2-0.2c0.1-0.1,0.2-0.1,0.2-0.2l9.5-5.5
				c0.7-0.4,1.4-0.6,2.2-0.6s1.5,0.2,2.2,0.6c0,0,9.4,5.4,9.5,5.5c0.8,0.5,1.4,1.2,1.6,2.1c0.1,0.2,0.2,0.8,0,1l-0.1,0.1
				c-0.3,0.1-0.6,0-0.9,0c-0.3,0-0.6,0-0.9,0c-0.6,0-1.2-0.1-1.8-0.2c-0.8-0.1-1.6-0.2-2.4-0.3c-1.2-0.1-2.4-0.3-3.7-0.4
				c-1.4-0.2-2.9-0.3-4.3-0.5c-1.4-0.2-2.8-0.3-4.3-0.5c-1.2-0.1-2.4-0.3-3.6-0.4c-0.8-0.1-1.6-0.2-2.4-0.3c-0.2,0-0.4,0-0.6-0.1
				h-0.1C33.8,15.7,33.6,15.7,33.6,15.6C33.5,15.8,33.5,15.7,33.6,15.6z M59.1,32.3L59.1,32.3c0,0.1-0.1,0.2-0.1,0.2l-0.1,0.1
				c-0.3,0.4-0.7,0.8-1.1,1.1L48,39.4c-0.7,0.4-1.4,0.6-2.2,0.6s-1.5-0.2-2.2-0.6l-8.5-4.9c-0.1-0.1-0.2-0.1-0.3-0.2l0,0
				c-0.1-0.1-0.2-0.2-0.1-0.4c0.1-0.3,0.8-0.5,0.9-0.5c0.2,0,0.4-0.1,0.6-0.1h0.1c0.3,0,0.6-0.1,0.9-0.1c0.3,0,0.6-0.1,0.9-0.1
				c1.2-0.2,2.4-0.3,3.6-0.5c1.1-0.1,2.3-0.3,3.5-0.4c1.2-0.1,2.4-0.2,3.4-0.3c1.1-0.1,2.2-0.1,3.3-0.2c1.1,0,2.1-0.1,3.2-0.1
				c0.1,0,0.2,0,0.3,0h0.3c0.8,0,1.6,0,2.4,0c0.1,0,0.2,0,0.3,0h0.2c0.3,0,0.5,0.1,0.6,0.3C59.2,32.1,59.2,32.2,59.1,32.3z
				 M59.8,26.9c0,1.2,0,1.2-2.4,1.5l-1.6,0.1c-0.2,0-0.4,0-0.7,0.1h-0.5c-4.1,0.4-8.2,0.8-12.3,1c-1.8,0.1-3.6,0.2-5.4,0.3
				c-0.8,0-1.7,0.1-2.5,0.1c-0.4,0-0.8,0-1.2,0c-0.3,0-0.8,0.1-1.1-0.1c-0.2-0.2-0.2-0.7-0.2-1v-8.1c0-1.1,0.4-1.4,2.7-1.5
				c0.4,0,0.8,0,1.3,0c6.8,0,14.1,1,22.9,3.2l0,0l0,0c0.1,0,0.1,0,0.2,0.1l0,0c0.3,0.1,0.7,0.1,0.7,1.1v3.2H59.8z"/>
		</g>
	</g>
</g>
</svg>
