<svg id="레이어_1" data-name="레이어 1" xmlns="http://www.w3.org/2000/svg" xmlns:xlink="http://www.w3.org/1999/xlink" viewBox="0 0 1913.45 1000"><defs><style>.cls-1{fill:#291d51;}.cls-2{fill:url(#무제_그라디언트_3);}.cls-3{fill:url(#무제_그라디언트_3-2);}.cls-4{fill:url(#무제_그라디언트_3-3);}</style><linearGradient id="무제_그라디언트_3" x1="681.72" y1="426.73" x2="577.61" y2="579.57" gradientUnits="userSpaceOnUse"><stop offset="0.04" stop-color="#5ff19d"/><stop offset="0.21" stop-color="#59eea3"/><stop offset="0.43" stop-color="#49e5b4"/><stop offset="0.68" stop-color="#2fd6d0"/><stop offset="0.96" stop-color="#0ac2f7"/><stop offset="1" stop-color="#04befe"/></linearGradient><linearGradient id="무제_그라디언트_3-2" x1="658.16" y1="410.68" x2="554.05" y2="563.52" xlink:href="#무제_그라디언트_3"/><linearGradient id="무제_그라디언트_3-3" x1="644.72" y1="401.52" x2="540.61" y2="554.37" xlink:href="#무제_그라디언트_3"/></defs><path class="cls-1" d="M982.08,500.37a39.42,39.42,0,0,0,.9-42,40,40,0,0,0-15.1-14.09,43.55,43.55,0,0,0-21-5.14H885.61V561.39h27.51V518.44h23.93l24.77,42.95,32.95.19L966.63,513.9A40.35,40.35,0,0,0,982.08,500.37Zm-25.64-9.85A13.49,13.49,0,0,1,946,494.8H913.12V463.94h29.43c5.42,0,9.82,1.45,13.07,4.32a14.39,14.39,0,0,1,4.79,11.28A15.74,15.74,0,0,1,956.44,490.52Z"/><rect class="cls-1" x="1036.65" y="439.11" width="28.47" height="122.28"/><polygon class="cls-1" points="1208.07 458.5 1207.13 457.8 1207.13 457.8 1208.17 458.36 1208.41 458.05 1208.41 439.11 1115.07 439.11 1115.07 465.3 1169.44 465.3 1110.81 541.97 1110.56 542.28 1110.56 561.39 1210.32 561.39 1210.32 535.89 1149.35 535.89 1208.07 458.5"/><path class="cls-1" d="M1355.5,454.9a59.62,59.62,0,0,0-20.07-13.28,69.55,69.55,0,0,0-50.32,0,59.52,59.52,0,0,0-33.26,33.19,69.69,69.69,0,0,0,0,50.37,59.5,59.5,0,0,0,33.26,33.2,69.55,69.55,0,0,0,50.32,0,59.64,59.64,0,0,0,20.07-13.29A61.45,61.45,0,0,0,1368.68,525a68.65,68.65,0,0,0,0-50A61.6,61.6,0,0,0,1355.5,454.9Zm-15.39,63.91a32.83,32.83,0,0,1-12.1,12.92,33.6,33.6,0,0,1-17.65,4.67,34,34,0,0,1-17.83-4.67,32.93,32.93,0,0,1-12.11-12.85,43.05,43.05,0,0,1,0-37.86,32.81,32.81,0,0,1,12.1-12.91,33.89,33.89,0,0,1,17.83-4.68,33.21,33.21,0,0,1,17.64,4.75,33.73,33.73,0,0,1,12.12,12.93,39.46,39.46,0,0,1,4.38,18.8A39.89,39.89,0,0,1,1340.11,518.81Z"/><path class="cls-1" d="M1501.36,474.26c-.12,10.19,0,19.28.43,27,.15,2.87.23,5.41.31,7.9s.15,4.82.28,7.39l-58.22-77-.35-.47h-24.92V561.39h27.86V515.87c0-3-.06-6-.18-9,0-1.31,0-2.64,0-4.17,0-1.84,0-4-.09-6.71l-.09-3c0-2.1-.11-4.41-.27-7.62l57.53,75.56.35.46h25.26V439.11h-27.85Z"/><path class="cls-1" d="M814.28,500.07c0-14.08-61.93-28.87-147.7-34.17,51.11-4.61,86.34-14.09,86.34-23.77,0-11-50.4-22.72-118.11-25.86,25.37-2.82,42.77-8.53,42.77-14.86,0-7.15-35.07-16.73-78.33-16.73s-78.32,8.83-78.32,16.73c0,7.33,16.09,12.41,39.89,14.92-66.26,3.08-115.23,13.88-115.23,25.8,0,9.6,34.74,19,85.27,23.67-85.23,5-146.63,18.86-146.63,34.27,0,15.79,60.75,29.36,145.26,34.27-49.79,4.69-83.9,14-83.9,23.53,0,11.92,49,22.72,115.23,25.8-23.8,2.51-39.89,7.59-39.89,14.92,0,7.9,35.07,16.73,78.32,16.73s78.33-9.58,78.33-16.73c0-6.33-17.4-12-42.77-14.88,67.71-3.14,118.11-14.83,118.11-25.84,0-9.6-34.62-19-85-23.65C753,529,814.28,514.55,814.28,500.07ZM541.92,457.79l.22-.18c.31-.21.58-.43,1-.66s.73-.47,1.1-.73l44.7-25.8a21,21,0,0,1,10.42-2.76,20.6,20.6,0,0,1,10.36,2.76s44,25.39,44.71,25.76a15.81,15.81,0,0,1,7.54,10.05c.26,1.15,1,3.7,0,4.73a1.32,1.32,0,0,1-.69.37,14.08,14.08,0,0,1-4.1.08c-1.49,0-2.94-.12-4.4-.19-2.87-.2-5.79-.47-8.66-.79-3.83-.41-7.64-.8-11.44-1.23-5.76-.58-11.49-1.21-17.24-1.82l-20.09-2.13-20.06-2.13c-5.71-.62-11.39-1.21-17.08-1.81-3.76-.41-7.49-.79-11.24-1.22L544,459.8a3.5,3.5,0,0,0-.64-.08c-.69-.12-1.35-.19-1.64-.68A1.18,1.18,0,0,1,541.92,457.79Zm120,78.52,0,.06c-.2.35-.41.68-.63,1l-.39.56a20.18,20.18,0,0,1-5.38,5.2L609.67,569.6a20.85,20.85,0,0,1-10.36,2.74,21.22,21.22,0,0,1-10.4-2.74L549,546.55a12.37,12.37,0,0,1-1.27-.94l-.1,0a1.8,1.8,0,0,1-.57-1.71c.51-1.54,3.89-2.22,4-2.24l2.68-.45.58-.08c1.47-.2,2.9-.43,4.36-.65l4.38-.62c5.75-.8,11.28-1.53,17-2.17,5.33-.67,10.85-1.23,16.4-1.74,5.84-.55,11-1,15.81-1.27,5.2-.31,10.34-.61,15.33-.76s10-.32,14.82-.34l1.44,0h1.45c3.65,0,7.52,0,11.45.12.47,0,1,.06,1.43.08l.8,0c1.47.14,2.39.57,2.78,1.19A1.5,1.5,0,0,1,661.89,536.31ZM664.74,511c0,5.61.06,5.72-11.49,7.17l-7.53.64c-1,.1-2,.18-3.09.34l-2.38.19c-19.14,1.94-38.32,3.58-57.51,4.77-8.49.53-17,1-25.47,1.29-4,.14-7.92.3-11.89.39-1.91,0-3.81.06-5.71.1-1.52,0-3.85.53-5.06-.61s-.78-3.2-.78-4.67V482.55c0-5.27,1.66-6.43,12.63-7.11,1.81,0,3.75-.06,6.29-.06,32.1,0,66.27,4.77,107.51,15.07a.39.39,0,0,1,.16,0l.08,0c.33.1.68.18,1,.25l.08,0c1.47.57,3.13.28,3.13,5.16Z"/><path class="cls-2" d="M661.88,536.3l0,.06c-.2.36-.41.7-.61,1l-.4.55a19.88,19.88,0,0,1-5.38,5.2L609.67,569.6a20.78,20.78,0,0,1-10.36,2.74,21,21,0,0,1-10.39-2.74l-39.89-23a15,15,0,0,1-1.27-.95l-.1,0a1.74,1.74,0,0,1-.55-1.69c.49-1.54,3.88-2.24,4-2.26.92-.16,1.79-.28,2.68-.43l.58-.08c1.47-.2,2.89-.44,4.36-.66s2.9-.4,4.37-.61c5.75-.82,11.29-1.53,17-2.19,5.31-.65,10.83-1.23,16.39-1.72,5.85-.56,11-1,15.81-1.27,5.2-.32,10.34-.62,15.32-.78s10-.31,14.82-.33l1.45,0h1.45c3.65,0,7.52,0,11.45.12l1.43.07.79,0c1.47.14,2.39.58,2.78,1.2A1.43,1.43,0,0,1,661.88,536.3Z"/><path class="cls-3" d="M664.74,495.92V511c0,5.6.06,5.72-11.49,7.17l-7.54.65c-1,.1-2,.18-3.08.32l-2.38.2c-19.15,1.94-38.32,3.59-57.51,4.78-8.49.52-17,1-25.48,1.29-4,.14-7.91.28-11.88.38-1.91,0-3.81.06-5.72.1-1.5,0-3.85.53-5.06-.6s-.77-3.21-.77-4.68V482.55c0-5.28,1.67-6.43,12.62-7.11,1.83,0,3.75-.06,6.29-.06,32.11,0,66.28,4.77,107.51,15.07a.39.39,0,0,1,.16,0h.08c.34.1.7.18,1,.26l.08,0C663.07,491.34,664.74,491,664.74,495.92Z"/><path class="cls-4" d="M661.86,471a1.31,1.31,0,0,1-.67.38,14.5,14.5,0,0,1-4.11.07c-1.49,0-2.94-.11-4.41-.19-2.87-.2-5.77-.48-8.65-.78-3.83-.41-7.64-.81-11.45-1.23-5.75-.59-11.49-1.21-17.22-1.82l-20.1-2.13c-6.69-.73-13.36-1.43-20.07-2.14-5.69-.62-11.39-1.21-17.08-1.81-3.75-.41-7.48-.79-11.23-1.21l-2.84-.29a3.73,3.73,0,0,0-.64-.08c-.69-.12-1.35-.2-1.64-.7a1.17,1.17,0,0,1,.18-1.25l.21-.18c.3-.19.58-.41,1-.65s.71-.48,1.09-.72l44.71-25.81a21.05,21.05,0,0,1,10.41-2.76,20.73,20.73,0,0,1,10.36,2.76s44,25.4,44.71,25.77a15.79,15.79,0,0,1,7.54,10.05C662.18,467.39,662.87,469.93,661.86,471Z"/></svg>