<?xml version="1.0" encoding="utf-8"?>
<!-- Generator: Adobe Illustrator 25.2.3, SVG Export Plug-In . SVG Version: 6.00 Build 0)  -->
<svg version="1.1" id="레이어_1" xmlns="http://www.w3.org/2000/svg" xmlns:xlink="http://www.w3.org/1999/xlink" x="0px"
	 y="0px" viewBox="0 0 106.8 83.5" style="enable-background:new 0 0 106.8 83.5;" xml:space="preserve">
<style type="text/css">
	.st0{fill:url(#SVGID_1_);}
	.st1{fill:#FFFFFF;}
</style>
<g>
	<g>
		<g>
			<g>
				<linearGradient id="SVGID_1_" gradientUnits="userSpaceOnUse" x1="9.7" y1="23.5" x2="97.1" y2="23.5">
					<stop  offset="4.034390e-02" style="stop-color:#6AF2A6"/>
					<stop  offset="0.197" style="stop-color:#64EFAB"/>
					<stop  offset="0.4077" style="stop-color:#53E8B9"/>
					<stop  offset="0.6492" style="stop-color:#37DCD1"/>
					<stop  offset="0.9118" style="stop-color:#10CBF1"/>
					<stop  offset="1" style="stop-color:#01C5FD"/>
				</linearGradient>
				<path class="st0" d="M97.1,23.5c0-2.9-12.6-5.9-30.1-7c10.4-0.9,17.6-2.9,17.6-4.8c0-2.2-10.3-4.6-24-5.3c5.2-0.6,8.7-1.7,8.7-3
					c0-1.5-7.1-3.4-15.9-3.4S37.5,1.8,37.5,3.4c0,1.5,3.3,2.5,8.1,3C32.1,7,22.1,9.2,22.1,11.7c0,2,7.1,3.9,17.4,4.8
					c-17.3,1-29.8,3.8-29.8,7s12.4,6,29.6,7c-10.1,1-17.1,2.9-17.1,4.8c0,2.4,10,4.6,23.5,5.3c-4.8,0.5-8.1,1.5-8.1,3
					c0,1.6,7.1,3.4,15.9,3.4s15.9-1.9,15.9-3.4c0-1.3-3.5-2.5-8.7-3c13.8-0.6,24-3,24-5.3c0-2-7-3.9-17.3-4.8
					C84.7,29.4,97.1,26.4,97.1,23.5z M41.7,14.9L41.7,14.9c0.1-0.1,0.2-0.1,0.2-0.2c0.1-0.1,0.1-0.1,0.2-0.1l9.1-5.3
					c0.7-0.4,1.4-0.6,2.1-0.6c0.7,0,1.5,0.2,2.1,0.6c0,0,9,5.2,9.1,5.2c0.7,0.4,1.3,1.2,1.5,2c0.1,0.2,0.2,0.8,0,1l-0.1,0.1
					c-0.3,0.1-0.6,0-0.8,0c-0.3,0-0.6,0-0.9,0c-0.6,0-1.2-0.1-1.8-0.2c-0.8-0.1-1.6-0.2-2.3-0.3c-1.2-0.1-2.3-0.2-3.5-0.4
					c-1.4-0.1-2.7-0.3-4.1-0.4c-1.4-0.1-2.7-0.3-4.1-0.4c-1.2-0.1-2.3-0.2-3.5-0.4c-0.8-0.1-1.5-0.2-2.3-0.2c-0.2,0-0.4,0-0.6-0.1
					h-0.1c-0.1,0-0.3,0-0.3-0.1C41.6,15.1,41.6,15,41.7,14.9z M66.1,30.9L66.1,30.9c0,0.1-0.1,0.2-0.1,0.2l-0.1,0.1
					c-0.3,0.4-0.7,0.8-1.1,1.1l-9.3,5.4c-0.6,0.4-1.4,0.6-2.1,0.6c-0.7,0-1.5-0.2-2.1-0.6L43.2,33c-0.1-0.1-0.2-0.1-0.3-0.2l0,0
					c-0.1-0.1-0.1-0.2-0.1-0.3c0.1-0.3,0.8-0.5,0.8-0.5c0.2,0,0.4-0.1,0.5-0.1h0.1c0.3,0,0.6-0.1,0.9-0.1c0.3,0,0.6-0.1,0.9-0.1
					c1.2-0.2,2.3-0.3,3.4-0.4c1.1-0.1,2.2-0.3,3.3-0.4c1.2-0.1,2.2-0.2,3.2-0.3c1.1-0.1,2.1-0.1,3.1-0.2c1,0,2-0.1,3-0.1
					c0.1,0,0.2,0,0.3,0h0.3c0.7,0,1.5,0,2.3,0c0.1,0,0.2,0,0.3,0h0.2c0.3,0,0.5,0.1,0.6,0.2C66.2,30.7,66.2,30.8,66.1,30.9z
					 M66.7,25.7c0,1.1,0,1.2-2.3,1.5l-1.5,0.1c-0.2,0-0.4,0-0.6,0.1h-0.5c-3.9,0.4-7.8,0.7-11.7,1c-1.7,0.1-3.4,0.2-5.2,0.3
					c-0.8,0-1.6,0.1-2.4,0.1c-0.4,0-0.8,0-1.2,0c-0.3,0-0.8,0.1-1-0.1s-0.2-0.7-0.2-1V20c0-1.1,0.3-1.3,2.6-1.4c0.4,0,0.8,0,1.3,0
					c6.5,0,13.5,1,21.9,3.1l0,0l0,0c0.1,0,0.1,0,0.2,0.1l0,0c0.3,0.1,0.6,0.1,0.6,1.1L66.7,25.7L66.7,25.7z"/>
			</g>
		</g>
	</g>
	<g>
		<path class="st1" d="M16.8,72.5c0.8-1.1,1.1-2.4,1.1-3.8c0-1.3-0.3-2.5-1-3.6c-0.7-1-1.5-1.9-2.6-2.5s-2.3-0.9-3.7-0.9H0V83h4.8
			v-7.5H9l4.3,7.5h5.8l-4.9-8.3C15.2,74.4,16.2,73.6,16.8,72.5z M12.4,70.8c-0.5,0.5-1.1,0.7-1.8,0.7H4.8v-5.4h5.1
			c0.9,0,1.7,0.3,2.3,0.8s0.8,1.2,0.8,2C13.1,69.7,12.8,70.3,12.4,70.8z"/>
		<rect x="24.6" y="61.8" class="st1" width="5" height="21.3"/>
		<polygon class="st1" points="53.2,65.2 53,65.1 53,65.1 53.2,65.2 53.2,65.2 53.2,61.8 37,61.8 37,66.4 46.4,66.4 36.2,79.8 
			36.2,79.9 36.2,83.2 53.6,83.2 53.6,78.7 42.9,78.7 		"/>
		<path class="st1" d="M78,64.6c-1-1-2.2-1.8-3.5-2.3s-2.8-0.8-4.4-0.8s-3.1,0.3-4.4,0.8s-2.5,1.3-3.5,2.3s-1.8,2.2-2.3,3.5
			s-0.8,2.8-0.8,4.4s0.3,3.1,0.8,4.4s1.3,2.5,2.3,3.5s2.2,1.8,3.5,2.3s2.8,0.8,4.4,0.8s3-0.3,4.4-0.8c1.3-0.5,2.5-1.3,3.5-2.3
			s1.8-2.2,2.3-3.5s0.8-2.8,0.8-4.4s-0.3-3-0.8-4.4C79.7,66.8,78.9,65.6,78,64.6z M75.3,75.8c-0.5,1-1.2,1.7-2.1,2.3
			c-0.9,0.5-1.9,0.8-3.1,0.8s-2.2-0.3-3.1-0.8s-1.6-1.3-2.1-2.2c-0.5-0.9-0.8-2.1-0.8-3.3c0-1.2,0.3-2.3,0.8-3.3s1.2-1.7,2.1-2.3
			c0.9-0.5,1.9-0.8,3.1-0.8c1.1,0,2.2,0.3,3.1,0.8c0.9,0.6,1.6,1.3,2.1,2.3s0.8,2.1,0.8,3.3C76,73.7,75.8,74.8,75.3,75.8z"/>
		<path class="st1" d="M101.9,68c0,1.8,0,3.4,0.1,4.7c0,0.5,0,0.9,0.1,1.4c0,0.4,0,0.8,0.1,1.3L91.9,61.9l-0.1-0.1h-4.4v21.3h4.9
			v-7.9c0-0.5,0-1,0-1.6c0-0.2,0-0.5,0-0.7c0-0.3,0-0.7,0-1.2v-0.5c0-0.4,0-0.8,0-1.3l10,13.2l0.1,0.1h4.4V61.8h-4.9V68z"/>
	</g>
</g>
</svg>
