<svg id="레이어_1" data-name="레이어 1" xmlns="http://www.w3.org/2000/svg" xmlns:xlink="http://www.w3.org/1999/xlink" viewBox="0 0 16 16"><defs><style>.cls-1{fill:url(#무제_그라디언트_9);}.cls-2{fill:url(#무제_그라디언트_3);}.cls-3{fill:url(#무제_그라디언트_3-2);}.cls-4{fill:url(#무제_그라디언트_3-3);}</style><linearGradient id="무제_그라디언트_9" x1="2.67" y1="13.12" x2="12.44" y2="3.74" gradientUnits="userSpaceOnUse"><stop offset="0.02" stop-color="#291051"/><stop offset="1" stop-color="#291d51"/></linearGradient><linearGradient id="무제_그라디언트_3" x1="13.59" y1="3.03" x2="6.53" y2="13.39" gradientUnits="userSpaceOnUse"><stop offset="0.04" stop-color="#5ff19d"/><stop offset="0.21" stop-color="#59eea3"/><stop offset="0.43" stop-color="#49e5b4"/><stop offset="0.68" stop-color="#2fd6d0"/><stop offset="0.96" stop-color="#0ac2f7"/><stop offset="1" stop-color="#04befe"/></linearGradient><linearGradient id="무제_그라디언트_3-2" x1="11.99" y1="1.95" x2="4.94" y2="12.31" xlink:href="#무제_그라디언트_3"/><linearGradient id="무제_그라디언트_3-3" x1="11.08" y1="1.33" x2="4.02" y2="11.68" xlink:href="#무제_그라디언트_3"/></defs><rect class="cls-1" width="16" height="16" rx="8"/><path class="cls-2" d="M12.24,10.46h0a.43.43,0,0,1,0,.07l0,0a1.2,1.2,0,0,1-.36.35l-3.1,1.8a1.47,1.47,0,0,1-1.41,0L4.6,11.16l-.09-.07h0s0-.08,0-.12.26-.15.27-.15l.18,0H5l.3,0,.29,0,1.15-.15,1.11-.11,1.07-.09,1,0,1,0h1.12a.26.26,0,0,1,.19.08A.07.07,0,0,1,12.24,10.46Z"/><path class="cls-3" d="M12.44,7.72v1c0,.38,0,.38-.78.48l-.51,0-.21,0h-.16c-1.3.13-2.6.24-3.9.32-.57,0-1.15.07-1.73.09l-.8,0H4c-.1,0-.26,0-.34,0s-.05-.21-.05-.31V6.82c0-.36.11-.44.85-.48h.43a29.62,29.62,0,0,1,7.28,1h.1C12.33,7.41,12.44,7.39,12.44,7.72Z"/><path class="cls-4" d="M12.24,6l0,0a.88.88,0,0,1-.28,0h-.3L11,6l-.77-.09L9.09,5.79,7.73,5.65,6.37,5.5,5.21,5.38,4.45,5.3l-.19,0h0s-.09,0-.11,0,0,0,0-.08h0l.06,0,.08,0,3-1.75A1.43,1.43,0,0,1,8,3.1a1.47,1.47,0,0,1,.71.18l3,1.75a1.07,1.07,0,0,1,.51.68C12.26,5.79,12.31,6,12.24,6Z"/></svg>